<svg xmlns="http://www.w3.org/2000/svg" width="226.667" height="184" viewBox="0 0 170 138" preserveAspectRatio="xMidYMid meet" xmlns:v="https://vecta.io/nano"><style><![CDATA[.G{font-family:sans-serif}.H{font-weight:600}.I{font-family:Segoe UI}.J{stroke-miterlimit:4.2}]]></style><g stroke="#000" class="J"><path d="M10.206 6.206h153.08v127.678H10.206z" fill="#fff" stroke-width=".53"/><g fill="#ff3b00"><g stroke-width=".526"><rect width="109" height="33" x="45.5" y="90.5" ry="2.628"/><rect width="110" height="31.896" x="44.5" y="53.604" ry="2.565"/></g><rect width="138.1" height="18.08" x="17.4" y="28.42" ry="2.509" stroke-width=".533"/><rect width="130.457" height="7.367" x="21" y="17" ry="2.509" stroke-width=".52"/><rect width="22.497" height="72.292" x="17.559" y="51.653" ry="2.628" stroke-width=".514"/></g></g><path d="M10.2 6.2c-1.9 1.9-1.7 125.1.2 126.7 1 .8 21.7 1.1 77 .9l76 .7c.2.5.3-28.3.3-64l-.2-65-76-.3c-58.4-.2-76.4.1-77.3 1zm152.6 5l.3 4.8h-55.9-56l-.6-3-.5-3h-7.5-7.4l-.7 3-.7 3H22.4 11v-5-5l75.8.2 75.7.3zM49.4 12.6c1.2 3.1.5 3.4-7 3.4-6.5 0-7.5-.2-7-1.6.3-.9.6-2 .6-2.5s2.9-.9 6.4-.9c4.9 0 6.5.4 7 1.6zM21 20.5V24h-4.9c-4.8 0-4.9 0-5.3-3.5l-.4-3.5h5.3H21zm21.9-1.6c4.3.1 6.7-.3 7.3-1.1.4-.7.8-.9.8-.3 0 .7 16.5.9 48.3.7l48.805-.273c1.963.237 1.901 1.629 1.901 1.629.927 1.442-.287 3.405-1.039 3.588-5 1.021-32.67.405-62.332.318-60.5 0-63.141 1.006-63.141-.994 0-.89-.485-4.005.403-4.228.708-.178 3.204-.188 5.067-.099 2.7.1 5.035.259 5.035-.341 0-.7.4-.7 1.3-.1.6.6 4.1 1.1 7.6 1.2zm119.9 1.3c-.3 3.2-.4 3.3-5.3 3.3s-5-.1-5.3-3.3l-.3-3.2h5.6 5.6zm0 55.7l-.3 51-75.7.3-75.8.3-.2-51.3-.3-51.2h76.3H163zm0 54.3c-.7 1.9-151.9 1.9-152.5 0-.4-.9 15.3-1.2 76.2-1.2s76.6.3 76.3 1.2zM14.4 10.1c-1 1.7 1.3 3.6 2.7 2.2 1.2-1.2.4-3.3-1.1-3.3-.5 0-1.2.5-1.6 1.1zm2.6.9c0 .5-.4 1-1 1a1.08 1.08 0 0 1-1-1c0-.6.5-1 1-1a.94.94 0 0 1 1 1z"/><path d="M20.7 9.6c-1.4 1.4-.7 3.5 1.1 3.2.9-.2 1.7-1 1.7-1.7 0-1.6-1.8-2.5-2.8-1.5zM23 11c0 .5-.4 1-1 1a1.08 1.08 0 0 1-1-1c0-.6.5-1 1-1a.94.94 0 0 1 1 1zm3 0c0 1.5.5 2 1.8 1.8.9-.2 1.7-1 1.7-1.8s-.8-1.6-1.7-1.8C26.5 9 26 9.5 26 11zm2.5 0c.3.5.1 1-.4 1-.6 0-1.1-.5-1.1-1 0-.6.2-1 .4-1 .3 0 .8.4 1.1 1zm127.9 0c0 .9.7 1.7 1.6 1.7.9.1 1.6-.6 1.6-1.6 0-.9-.7-1.7-1.6-1.7a1.58 1.58 0 0 0-1.6 1.6zm-139 18.3c-.3.8-.4 4.9-.2 9.3l.3 7.9h69 69v-9-9l-68.8-.3c-56.9-.2-68.8 0-69.3 1.1zm136.2 1.1c1.9 2 1.9 12.2 0 14.2-2.2 2.1-132 2.1-134.2 0-1.8-1.8-1.9-12.1-.1-14.1 1.8-2.1 132.1-2.2 134.3-.1zM17.5 52.2c-.3.7-.4 17.3-.3 36.8l.3 35.5H29h11.5V88 51.5l-11.3-.3c-8.4-.2-11.4.1-11.7 1zm21.1 1.2c2.1 2.1 2.1 67.1 0 69.2-2 2-17.2 2-19.2 0-1.9-2-2.1-66.9-.1-69.1 1.7-2 17.3-2.1 19.3-.1zm5.8.9c-.2.7-.3 8-.2 16.2l.3 15h55 55v-16-16l-54.8-.3c-44.2-.2-54.9 0-55.3 1.1zm108.2 1.1c1.8 1.9 2 26.6.2 28.4-.9.9-14.1 1.2-53.1 1.2-43.6 0-52.1-.2-53.3-1.4-1.9-1.9-2-26-.1-28.1 1.8-2.1 104.1-2.2 106.3-.1zM45.4 91.3c-.2.7-.3 8.2-.2 16.7l.3 15.5H100h54.5V107 90.5l-54.3-.3c-43.8-.2-54.4 0-54.8 1.1zm107.2 1.1c1.9 1.9 2.1 27.5.2 29.4-.9.9-13.9 1.2-52.6 1.2-43.2 0-51.6-.2-52.8-1.4-1.9-1.9-2-27-.1-29.1 1.8-2.1 103.1-2.2 105.3-.1z"/><text xml:space="preserve" x="58.058" y="-27.285" transform="rotate(90)" font-size="8.105" class="G"><tspan x="58.058" y="-27.285" class="H I">proxy server A</tspan></text><text xml:space="preserve" x="54.75" y="71.702" font-size="9" class="G"><tspan x="54.75" y="71.702" class="H I">proxy server A</tspan></text><text xml:space="preserve" x="54.909" y="109.087" font-size="9" class="G"><tspan x="54.909" y="109.087" class="H I">proxy server A</tspan></text><text xml:space="preserve" x="41.63" y="39.533" font-size="9" class="G"><tspan x="41.63" y="39.533" class="H I">proxy server A</tspan></text></svg>