<svg xmlns="http://www.w3.org/2000/svg" width="226.667" height="184" viewBox="0 0 170 138" preserveAspectRatio="xMidYMid meet" xmlns:v="https://vecta.io/nano"><style><![CDATA[.G{font-family:sans-serif}.H{font-weight:600}.I{font-family:Segoe UI}]]></style><g stroke="#000" stroke-miterlimit="4.2"><rect width="153.411" height="125.954" x="10.041" y="6.041" ry="2.621" fill="#fff" stroke-width=".518"/><rect width="23" height="73" x="17.5" y="51.5" ry="2.654" fill="#ff3b00" stroke-width=".523"/><rect width="109.568" height="31.675" x="44.561" y="53.454" ry="2.749" fill="#019cfd" stroke-width=".534"/><rect width="137.988" height="17.823" x="17.35" y="28.514" ry="2.849" fill="#00befe" stroke-width=".529"/></g><path d="M10.2 6.2c-1.9 1.9-1.7 125.1.2 126.7 1 .8 21.7 1.1 77 .9l76 .7c.2.5.3-28.3.3-64l-.2-65-76-.3c-58.4-.2-76.4.1-77.3 1zm152.6 5l.3 4.8h-55.9-56l-.6-3-.5-3h-7.5-7.4l-.7 3-.7 3H22.4 11v-5-5l75.8.2 75.7.3.3 4.7zM49.4 12.6c1.2 3.1.5 3.4-7 3.4-6.5 0-7.5-.2-7-1.6.3-.9.6-2 .6-2.5s2.9-.9 6.4-.9c4.9 0 6.5.4 7 1.6zM21 20.5V24h-4.9c-4.8 0-4.9 0-5.3-3.5l-.4-3.5h5.3H21v3.5zm130 0V24H86.5 22v-3.5V17h64.5H151v3.5zm11.8-.3c-.3 3.2-.4 3.3-5.2 3.3-4.9 0-4.9 0-5-3.3l-.1-3.2h5.3 5.3l-.3 3.2zm0 55.8l-.3 50.9-75.7.3-75.8.3-.2-51.3-.3-51.2h76.3H163l-.2 51zm0 54.2c-.7 1.9-151.9 1.9-152.5 0-.4-.9 15.3-1.2 76.2-1.2s76.6.3 76.3 1.2zM14.4 10.1c-1 1.7 1.3 3.6 2.7 2.2 1.2-1.2.4-3.3-1.1-3.3-.5 0-1.2.5-1.6 1.1zm2.6.9c0 .5-.4 1-1 1a1.08 1.08 0 0 1-1-1c0-.6.5-1 1-1a.94.94 0 0 1 1 1zm3.7-1.4c-1.4 1.4-.7 3.5 1.1 3.2.9-.2 1.7-1 1.7-1.7 0-1.6-1.8-2.5-2.8-1.5zM23 11c0 .5-.4 1-1 1a1.08 1.08 0 0 1-1-1c0-.6.5-1 1-1a.94.94 0 0 1 1 1zm3 0c0 1.5.5 2 1.8 1.8.9-.2 1.7-1 1.7-1.8s-.8-1.6-1.7-1.8C26.5 9 26 9.5 26 11zm2.5 0c.3.5.1 1-.4 1-.6 0-1.1-.5-1.1-1 0-.6.2-1 .4-1 .3 0 .8.4 1.1 1zm127.9 0c0 .9.7 1.7 1.6 1.7.9.1 1.6-.6 1.6-1.6 0-.9-.7-1.7-1.6-1.7a1.58 1.58 0 0 0-1.6 1.6zm-139 18.3c-.3.8-.4 4.9-.2 9.3l.3 7.9h69 69v-9-9l-68.8-.3c-56.9-.2-68.8 0-69.3 1.1zm137.1 8.2v8h-68-68l-.3-6.9c-.2-3.8-.1-7.5.2-8.3.5-1.1 12-1.3 68.3-1.1l67.8.3v8zm-137 14.7c-.3.7-.4 17.3-.3 36.8l.3 35.5H29h11.5V88 51.5l-11.3-.3c-8.4-.2-11.4.1-11.7 1zm21.1 1.2c2.1 2.1 2.1 67.1 0 69.2-2 2-17.2 2-19.2 0-1.9-2-2.1-66.9-.1-69.1 1.7-2 17.3-2.1 19.3-.1zm5.8.9c-.2.7-.3 8-.2 16.2l.3 15h55 55v-16-16l-54.8-.3c-44.2-.2-54.9 0-55.3 1.1zm109.1 15.2v15h-54-54l-.3-14c-.1-7.6 0-14.5.2-15.2.4-1.1 10.8-1.3 54.3-1.1l53.8.3v15zM45.4 91.3c-.2.7-.3 8.2-.2 16.7l.3 15.5H100h54.5V107 90.5l-54.3-.3c-43.8-.2-54.4 0-54.8 1.1zM153.5 107v15.5H100 46.5l-.3-14.5c-.1-7.9 0-15 .2-15.7.4-1.1 10.7-1.3 53.8-1.1l53.3.3V107z"/><text xml:space="preserve" x="34.675" y="38.822" font-size="9" class="G"><tspan x="34.675" y="38.822" class="H I">proxy server A</tspan></text><text xml:space="preserve" x="59.335" y="71.386" font-size="9" class="G"><tspan x="59.335" y="71.386" class="H I">proxy server B</tspan></text><text xml:space="preserve" x="57.194" y="-27.566" transform="rotate(90)" font-size="8.181" class="G"><tspan x="57.194" y="-27.566" class="H I">proxy server C</tspan></text><text xml:space="preserve" x="58.275" y="109.203" font-size="9" class="G"><tspan x="58.275" y="109.203" class="H I">not proxied</tspan></text></svg>